<svg xmlns="http://www.w3.org/2000/svg" viewBox="0 0 287.8 141"><defs><style>.cls-1{fill:#fff;}</style></defs><title>rasa_logo_horizontal_white</title><g id="White"><g id="logo"><path class="cls-1" d="M209.4,29V79.11h12V64h26V79h12V29Zm38,23h-26V41h26Z"/><polygon class="cls-1" points="198.4 56.5 198.4 69 198.4 79 149.4 79 149.4 67 186.4 67 186.4 60 149.4 60 149.4 49 149.4 36.5 149.4 29 198.4 29 198.4 41 161.4 41 161.4 48 198.4 48 198.4 56.5 198.4 56.5"/><path class="cls-1" d="M88.4,29V79.11h12V64h26V79h12V29Zm38,23h-26V41h26Z"/><path class="cls-1" d="M61.31,59.94l15.36-5.59.73-.29V29h-49V79H40.24V67.59l9-3.26L62.79,79H77.61Zm-21-5.12V41H65.4v4.68Z"/><path class="cls-1" d="M246.05,90.54H270V18.44H17.84v72.1h180L246,114.36V90.54ZM4.4,5h279v99H259.49v32l-64.77-32H4.4Z"/></g></g></svg>